<?xml version="1.0" encoding="UTF-8"?>
<svg id="rotating-graphic" data-name="Layer 1" xmlns="http://www.w3.org/2000/svg" width="433.02" height="433.27" viewBox="0 0 500 500">
  <defs>
    <style>
    #elearning-demo-content #rotating-graphic g#elipse-1 text,
    #elearning-demo-content #rotating-graphic g#elipse-2 text,
    #elearning-demo-content #rotating-graphic g#elipse-3 text,
    #elearning-demo-content #rotating-graphic g#elipse-4 text {
      font-size: 13px;
      fill:rgb(255 255 255 /70%);
    }
	  #arc-1,#arc-2,#arc-3{ fill:rgb(255 255 255 / 10%);}
      .cls-1 {
        stroke-dasharray: 0 0 2 5.99;
      }

      .cls-1, .cls-2, .cls-3, .cls-4, .cls-5, .cls-6, .cls-7 {
        stroke-miterlimit: 10;
      }

      .cls-1, .cls-2, .cls-3, .cls-5, .cls-7 {
        stroke: rgb(255 255 255 / 20%)
      }

      .cls-1, .cls-3, .cls-4, .cls-5, .cls-7 {
        fill: none;
      }
      .cls-8 {
        letter-spacing: .1em;
      }

      .cls-9 {
        letter-spacing: .1em;
      }

      .cls-3 {
        stroke-dasharray: 0 0 2 6;
      }

      .cls-4, .cls-5 {
        stroke-dasharray: 0 0 2 6;
      }

      .cls-4, .cls-6 {
        stroke: rgb(255 255 255 / 50%);
      }

      .cls-6 {
        fill: #fff;
        font-size: 20px;
        stroke-width: .5px;
      }

      .cls-6, .cls-10, .cls-11 {
        font-family: arial, san-serif;fill:white;
      }

      .cls-10 {
        font-size: 15px;
      }

	.cls-12 {
		letter-spacing: 0em;
	}

    .cls-11 {
        font-size: 15px;
    }
	#rotating-graphic g text tspan {
		letter-spacing: 1px;
	}
	#outer-circle-group, #inner-circle-group{ fill:rgb(255 255 255 / 10%); }
	#elipse-5 circle:first-child {
    	fill: rgb(0 0 0 / 20%);

    	z-index: 0;
	}
	#elipse-5 text { z-index:1;}
    </style>
  </defs>
  <g id="elipse-5">
    <circle cx="217.51" cy="217.51" r="66.5"/>
    <text class="cls-6" transform="translate(196.65 209.22)"><tspan class="cls-12" x="0" y="-5">Core</tspan><tspan x="-10" y="19">Mission</tspan></text>
    <circle class="cls-4" cx="218.07" cy="217.21" r="62.5"/>
  </g>
  <g id="elipse-4">
    <circle class="cls-7" cx="216.59" cy="216.85" r="80.46"/>
    <path id="arc-3" class="cls-2" d="m147.63,217.25c0-38.19,30.96-69.15,69.15-69.15s69.15,30.96,69.15,69.15m11.33,0c0-44.44-36.03-80.46-80.46-80.46s-80.46,36.03-80.46,80.46"/>
    <text class="cls-11" transform="translate(164.02 148.5) rotate(-33.9)"><tspan x="0" y="0">C</tspan></text>
    <text class="cls-11" transform="translate(171.36 143.55) rotate(-28.27)"><tspan x="0" y="0">o</tspan></text>
    <text class="cls-11" transform="translate(178.77 139.39) rotate(-21.19)"><tspan x="0" y="0">m</tspan></text>
    <text class="cls-11" transform="translate(190.94 134.79) rotate(-14.01)"><tspan x="0" y="0">p</tspan></text>
    <text class="cls-11" transform="translate(199.62 132.72) rotate(-9.88)"><tspan x="0" y="0">l</tspan></text>
    <text class="cls-11" transform="translate(203.22 132.09) rotate(-7.49)"><tspan x="0" y="0">i</tspan></text>
    <text class="cls-11" transform="translate(206.78 131.55) rotate(-3.85)"><tspan x="0" y="0">a</tspan></text>
    <text class="cls-11" transform="translate(214.24 131.01) rotate(1.34)"><tspan x="0" y="0">n</tspan></text>
    <text class="cls-11" transform="translate(222.9 131.24) rotate(6.41)"><tspan x="0" y="0">c</tspan></text>
    <text class="cls-11" transform="translate(229.72 131.98) rotate(11.18)"><tspan x="0" y="0">e</tspan></text>
    <text class="cls-11" transform="translate(237.4 133.56) rotate(14.83)"><tspan x="0" y="0"> </tspan></text>
    <text class="cls-11" transform="translate(239.94 134.15) rotate(18.05)"><tspan x="0" y="0">T</tspan></text>
    <text class="cls-11" transform="translate(246.64 136.35) rotate(21.81)"><tspan x="0" y="0">r</tspan></text>
    <text class="cls-11" transform="translate(251.28 138.15) rotate(25.9)"><tspan x="0" y="0">a</tspan></text>
    <text class="cls-11" transform="translate(258.04 141.49) rotate(29.55)"><tspan x="0" y="0">i</tspan></text>
    <text class="cls-11" transform="translate(261.19 143.17) rotate(33.57)"><tspan x="0" y="0">n</tspan></text>
    <text class="cls-11" transform="translate(268.38 148.04) rotate(37.56)"><tspan x="0" y="0">i</tspan></text>
    <text class="cls-11" transform="translate(271.27 150.14) rotate(41.56)"><tspan x="0" y="0">n</tspan></text>
    <text class="cls-11" transform="translate(277.74 155.86) rotate(47.2)"><tspan x="0" y="0">g</tspan></text>
    <g id="inner-circle-group">
      <ellipse cx="197.57" cy="109.86" rx="3.64" ry="3.62"/>
      <ellipse cx="242.52" cy="110.89" rx="3.63" ry="3.62"/>
      <ellipse cx="281.57" cy="128.72" rx="3.64" ry="3.62"/>
      <ellipse cx="313.16" cy="164.49" rx="3.63" ry="3.62"/>
      <ellipse cx="326.13" cy="207.54" rx="3.63" ry="3.62"/>
      <ellipse cx="321.17" cy="250.02" rx="3.63" ry="3.62"/>
      <ellipse cx="295.11" cy="293.07" rx="3.64" ry="3.62"/>
      <ellipse cx="259.62" cy="316.56" rx="3.63" ry="3.62"/>
      <ellipse cx="217.5" cy="326.63" rx="3.64" ry="3.62"/>
      <ellipse cx="170.82" cy="314.54" rx="3.64" ry="3.62"/>
      <ellipse cx="134.91" cy="287.29" rx="3.64" ry="3.62"/>
      <ellipse cx="113.54" cy="250.03" rx="3.63" ry="3.62"/>
      <ellipse cx="109.4" cy="202.6" rx="3.64" ry="3.62"/>
      <ellipse cx="124.33" cy="160.18" rx="3.64" ry="3.62"/>
      <ellipse cx="152.62" cy="128.39" rx="3.63" ry="3.62"/>
    </g>
    <circle class="cls-5" cx="216.76" cy="216.32" r="114.5"/>
  </g>
  <g id="elipse-3">
    <circle class="cls-7" cx="217.83" cy="216.84" r="135.93"/>
    <text class="cls-11" transform="translate(156.37 89.63) rotate(-25.45)"><tspan x="0" y="0">O</tspan></text>
    <text class="cls-11" transform="translate(166.19 84.99) rotate(-21.29)"><tspan x="0" y="0">n</tspan></text>
    <text class="cls-11" transform="translate(174.37 81.87) rotate(-18.73)"><tspan x="0" y="0"> </tspan></text>
    <text class="cls-11" transform="translate(177.49 80.79) rotate(-16.93)"><tspan x="0" y="0">t</tspan></text>
    <text class="cls-11" transform="translate(182.42 79.24) rotate(-13.96)"><tspan x="0" y="0">h</tspan></text>
    <text class="cls-11" transform="translate(190.88 77.15) rotate(-10.44)"><tspan x="0" y="0">e</tspan></text>
    <text class="cls-11" transform="translate(198.67 75.75) rotate(-8.07)"><tspan x="0" y="0"> </tspan></text>
    <text class="cls-11" transform="translate(201.95 75.27) rotate(-6.14)"><tspan x="0" y="0">J</tspan></text>
    <text class="cls-11" transform="translate(207.68 74.61) rotate(-3.12)"><tspan x="0" y="0">o</tspan></text>
    <text class="cls-11" transform="translate(216.27 74.1) rotate(.93)"><tspan x="0" y="0">b</tspan></text>
    <text class="cls-11" transform="translate(225.28 74.27) rotate(3.08)"><tspan x="0" y="0"> </tspan></text>
    <text class="cls-11" transform="translate(227.92 74.36) rotate(5.14)"><tspan x="0" y="0">T</tspan></text>
    <text class="cls-11" transform="translate(235.01 75.01) rotate(7.57)"><tspan x="0" y="0">r</tspan></text>
    <text class="cls-11" transform="translate(240.02 75.64) rotate(10.23)"><tspan x="0" y="0">a</tspan></text>
    <text class="cls-11" transform="translate(247.5 77.03) rotate(12.62)"><tspan x="0" y="0">i</tspan></text>
    <text class="cls-11" transform="translate(251.06 77.77) rotate(15.26)"><tspan x="0" y="0">n</tspan></text>
    <text class="cls-11" transform="translate(259.49 80.13) rotate(17.89)"><tspan x="0" y="0">i</tspan></text>
    <text class="cls-11" transform="translate(262.95 81.18) rotate(20.52)"><tspan x="0" y="0">n</tspan></text>
    <text class="cls-11" transform="translate(271.13 84.23) rotate(24.24)"><tspan x="0" y="0">g</tspan></text>
    <path id="arc-2" class="cls-2" d="m101.06,216.47c0-64.5,52.29-116.78,116.78-116.78s116.78,52.29,116.78,116.78m19.14,0c0-75.05-60.84-135.9-135.9-135.9s-135.9,60.84-135.9,135.9"/>
  </g>
  <g id="elipse-2">
    <circle class="cls-7" cx="217.52" cy="216.75" r="187.08"/>
    <circle class="cls-3" cx="217.05" cy="216.47" r="164.35"/>
    <text class="cls-10" transform="translate(126.45 47.55) rotate(-28.17)"><tspan x="0" y="0">E</tspan></text>
    <text class="cls-10" transform="translate(134.04 43.37) rotate(-24.56)"><tspan x="0" y="0">m</tspan></text>
    <text class="cls-10" transform="translate(147.54 37.27) rotate(-20.73)"><tspan x="0" y="0">p</tspan></text>
    <text class="cls-10" transform="translate(157.03 33.74) rotate(-18.53)"><tspan x="0" y="0">l</tspan></text>
    <text class="cls-10" transform="translate(160.95 32.37) rotate(-16.38)"><tspan x="0" y="0">o</tspan></text>
    <text class="cls-10" transform="translate(170.15 29.68) rotate(-13.64)"><tspan x="0" y="0">y</tspan></text>
    <text class="cls-10" transform="translate(178.08 27.74) rotate(-11.04)"><tspan x="0" y="0">e</tspan></text>
    <text class="cls-10" transform="translate(186.81 26.03) rotate(-8.31)"><tspan x="0" y="0">e</tspan></text>
    <text class="cls-10" transform="translate(195.63 24.79) rotate(-6.38)"><tspan x="0" y="0"> </tspan></text>
    <text class="cls-10" transform="translate(199.32 24.32) rotate(-4.36)"><tspan x="0" y="0">P</tspan></text>
    <text class="cls-10" transform="translate(208.46 23.65) rotate(-2.14)"><tspan x="0" y="0">r</tspan></text>
    <text class="cls-10" transform="translate(214.02 23.34) rotate(.93)"><tspan x="0" y="0">e</tspan></text>
    <text class="cls-10" transform="translate(222.94 23.43) rotate(2.4)"><tspan x="0" y="0">s</tspan></text>
    <text class="cls-10" transform="translate(229.95 23.71) rotate(4.68)"><tspan x="0" y="0">c</tspan></text>
    <text class="cls-10" transform="translate(237.89 24.38) rotate(6.77)"><tspan x="0" y="0">r</tspan></text>
    <text class="cls-10" transform="translate(243.43 25) rotate(8.96)"><tspan x="0" y="0">e</tspan></text>
    <text class="cls-10" transform="translate(252.2 26.38) rotate(11.69)"><tspan x="0" y="0">e</tspan></text>
    <text class="cls-10" transform="translate(260.89 28.16) rotate(14.58)"><tspan x="0" y="0">n</tspan></text>
    <text class="cls-10" transform="translate(270.45 30.7) rotate(16.74)"><tspan x="0" y="0">i</tspan></text>
    <text class="cls-10" transform="translate(274.37 31.82) rotate(18.89)"><tspan x="0" y="0">n</tspan></text>
    <text class="cls-10" transform="translate(283.67 35) rotate(21.93)"><tspan x="0" y="0">g</tspan></text>
  </g>
  <g id="elipse-1">
    <g id="outer-circle-group">
      <circle cx="178.57" cy="6.95" r="3.72"/>
      <circle cx="265.8" cy="8.95" r="3.72"/>
      <circle cx="341.58" cy="43.71" r="3.72"/>
      <circle cx="402.89" cy="113.44" r="3.72"/>
      <circle cx="428.05" cy="197.38" r="3.72"/>
      <circle cx="418.42" cy="280.19" r="3.72"/>
      <circle cx="367.86" cy="364.12" r="3.72"/>
      <circle cx="298.99" cy="409.92" r="3.72"/>
      <circle cx="217.25" cy="429.54" r="3.72"/>
      <circle cx="126.67" cy="405.97" r="3.72"/>
      <circle cx="56.97" cy="352.85" r="3.72"/>
      <circle cx="15.52" cy="280.21" r="3.72"/>
      <circle cx="7.48" cy="187.74" r="3.72"/>
      <circle cx="36.46" cy="105.04" r="3.72"/>
      <circle cx="91.35" cy="43.06" r="3.72"/>
    </g>
    <circle class="cls-1" cx="216.51" cy="216.51" r="216.01"/>
  </g>
  <path id="arc-1" d="m50.46,217.25c0-94.32,72.74-166.88,167.06-166.88s167.17,71.92,167.17,166.23l19.92.84c0-103.32-83.76-187.08-187.08-187.08S30.44,114.12,30.44,217.44l20.02-.19Z"/>
</svg>