<?xml version="1.0" encoding="utf-8"?>
<!-- Generator: Adobe Illustrator 27.3.1, SVG Export Plug-In . SVG Version: 6.00 Build 0)  -->
<svg version="1.1" id="rotating-graphic" xmlns="http://www.w3.org/2000/svg" xmlns:xlink="http://www.w3.org/1999/xlink" x="0px"
	 y="0px" viewBox="0 0 433 433.3" style="enable-background:new 0 0 433 433.3;" xml:space="preserve">
<style type="text/css">

	.st1{font-family:'ArialMT';}
	.st3{fill:white;stroke:rgb(255 255 255 / 0%);stroke-width:0.433;stroke-miterlimit:8.6604;}
	.st4{fill:none;stroke:rgb(255 255 255 / 30%);stroke-width:0.866;stroke-miterlimit:8.6604;stroke-dasharray:0,0,1.7321,5.1962;}
	.st5{fill:none;stroke:rgb(255 255 255 / 30%);stroke-width:0.866;stroke-miterlimit:8.6604;}
	.st6{fill:rgb(255 255 255 / 10%);stroke:rgb(255 255 255 / 10%);stroke-width:0.866;stroke-miterlimit:8.6604;}
	.st7{font-size:12.9906px;}
	.st8{fill:none;stroke:rgb(255 255 255 / 30%);stroke-width:0.866;stroke-miterlimit:8.6604;stroke-dasharray:0,0,1.7321,5.1876;}
  text textPath{ fill:rgb(255 255 255 / 60%); font-size:13px;}
  #rotating-graphic .st0{fill:rgb(255 255 255 / 10%);}
  #elipse-5 #core-circle{fill:rgb(0 0 0 / 30%); stroke:none;}
  #elipse-5 circle:not(#core-circle){stroke:rgb(255 255 255 / 100%);}
  svg#rotating-graphic #elipse-2 text,
  svg#rotating-graphic #elipse-3 text {
    transform: translate(3px, -5px);
  }
  svg#rotating-graphic #elipse-4 text{ transform: translate(7px, -7px);}
</style>
<g id="elipse-5">
	<circle id="core-circle" cx="188.4" cy="188.5" r="57.6"/>
	<!-- <text transform="matrix(1 0 0 1 170.3066 176.9878)" class="st0 st1 st2">Core</text> -->
	<text transform="matrix(1 0 0 1 170.3066 176.9878)" class="st3 st1 st2">Core</text>
	<text transform="matrix(1 0 0 1 161.6465 197.7725)" class="st3 st1 st2">Mission</text>
	<!-- <text transform="matrix(1 0 0 1 161.6465 197.7725)" class="st3 st1 st2">Mission</text> -->
	<circle class="st4" cx="188.9" cy="188.2" r="54.1"/>
</g>
<g id="elipse-4">
	<path id="compliance" class="st5" d="M187.6,118.2c38.5,0,69.7,31.2,69.7,69.7s-31.2,69.7-69.7,69.7s-69.7-31.2-69.7-69.7S149.1,118.2,187.6,118.2z
		"/>
	<path id="arc-3" class="st6" d="M127.9,188.3c0-33.1,26.8-59.9,59.9-59.9s59.9,26.8,59.9,59.9 M257.4,188.3
		c0-38.5-31.2-69.7-69.7-69.7s-69.7,31.2-69.7,69.7"/>
  <text><textPath href="#compliance">Compliance Training</textPath></text>

	<g id="inner-circle-group">
		<ellipse class="st0" cx="171.1" cy="95.3" rx="3.2" ry="3.1"/>
		<ellipse class="st0" cx="210" cy="96.2" rx="3.1" ry="3.1"/>
		<ellipse class="st0" cx="243.9" cy="111.6" rx="3.2" ry="3.1"/>
		<ellipse class="st0" cx="271.2" cy="142.6" rx="3.1" ry="3.1"/>
		<ellipse class="st0" cx="282.4" cy="179.9" rx="3.1" ry="3.1"/>
		<ellipse class="st0" cx="278.1" cy="216.7" rx="3.1" ry="3.1"/>
		<ellipse class="st0" cx="255.6" cy="253.9" rx="3.2" ry="3.1"/>
		<ellipse class="st0" cx="224.8" cy="274.3" rx="3.1" ry="3.1"/>
		<ellipse class="st0" cx="188.4" cy="283" rx="3.2" ry="3.1"/>
		<ellipse class="st0" cx="147.9" cy="272.5" rx="3.2" ry="3.1"/>
		<ellipse class="st0" cx="116.8" cy="248.9" rx="3.2" ry="3.1"/>
		<ellipse class="st0" cx="98.3" cy="216.7" rx="3.1" ry="3.1"/>
		<ellipse class="st0" cx="94.7" cy="175.6" rx="3.2" ry="3.1"/>
		<ellipse class="st0" cx="107.7" cy="138.8" rx="3.2" ry="3.1"/>
		<ellipse class="st0" cx="132.2" cy="111.3" rx="3.1" ry="3.1"/>
	</g>
	<circle class="st4" cx="187.7" cy="187.5" r="99.2"/>
</g>
<g id="elipse-3">
	<path id="ojt" class="st5" d="M188.6,70.2c65,0,117.7,52.7,117.7,117.7s-52.7,117.7-117.7,117.7S70.9,252.9,70.9,187.9
		S123.6,70.2,188.6,70.2z"/>
  <text><textPath href="#ojt">On the Job Training</textPath></text>

	<path id="arc-2" class="st6" d="M87.5,187.6c0-55.9,45.3-101.1,101.1-101.1s101.1,45.3,101.1,101.1 M306.4,187.6
		c0-65-52.7-117.7-117.7-117.7S71,122.6,71,187.6"/>
</g>
<g id="elipse-2">
	<path id="employee-training" class="st5" d="M188.4,25.8c89.5,0,162,72.5,162,162s-72.5,162-162,162s-162-72.5-162-162S98.9,25.8,188.4,25.8z"/>
	<circle class="st4" cx="188" cy="187.6" r="142.3"/>
  <text><textPath href="#employee-training">Employee Training</textPath></text>

</g>
<g id="elipse-1">
	<g id="outer-circle-group">
		<circle class="st0" cx="154.6" cy="6.1" r="3.2"/>
		<circle class="st0" cx="230.2" cy="7.9" r="3.2"/>
		<circle class="st0" cx="295.8" cy="38" r="3.2"/>
		<circle class="st0" cx="348.9" cy="98.4" r="3.2"/>
		<circle class="st0" cx="370.7" cy="171.1" r="3.2"/>
		<circle class="st0" cx="362.4" cy="242.8" r="3.2"/>
		<circle class="st0" cx="318.6" cy="315.5" r="3.2"/>
		<circle class="st0" cx="258.9" cy="355.1" r="3.2"/>
		<circle class="st0" cx="188.1" cy="372.1" r="3.2"/>
		<circle class="st0" cx="109.7" cy="351.7" r="3.2"/>
		<circle class="st0" cx="49.3" cy="305.7" r="3.2"/>
		<circle class="st0" cx="13.4" cy="242.8" r="3.2"/>
		<circle class="st0" cx="6.5" cy="162.7" r="3.2"/>
		<circle class="st0" cx="31.6" cy="91.1" r="3.2"/>
		<circle class="st0" cx="79.1" cy="37.4" r="3.2"/>
	</g>
	<circle class="st8" cx="187.5" cy="187.6" r="187.1"/>
</g>
<path id="arc-1" class="st0" d="M43.7,188.3c0-81.7,63-144.5,144.7-144.5s144.8,62.3,144.8,144l17.3,0.7c0-89.5-72.5-162-162-162
	s-162,72.5-162,162L43.7,188.3z"/>
</svg>
