<?xml version="1.0" encoding="utf-8"?>
<!-- Generator: Adobe Illustrator 23.0.2, SVG Export Plug-In . SVG Version: 6.00 Build 0)  -->
<svg version="1.1" id="logo" xmlns="http://www.w3.org/2000/svg" xmlns:xlink="http://www.w3.org/1999/xlink" x="0px" y="0px"
	 viewBox="0 0 138.11 64.42" style="enable-background:new 0 0 138.11 51.42;" xml:space="preserve">
<style type="text/css">
	.st0{fill:#FA0F00;}
	.upper-logo{margin-bottom:3px;}
</style>
<g class="upper-logo" transform="translate(0,-3)">
	<path class="st0" d="M0.6,2.59h11.05l3.98,21.08l5.82-21.08h11.01l5.84,21.05l3.98-21.05h10.99l-8.3,37.65H33.57l-6.6-23.71
		l-6.58,23.71H8.98L0.6,2.59z"/>
	<path class="st0" d="M58.04,2.59h19.34c4.21,0,7.37,1,9.46,3c2.1,2,3.15,4.85,3.15,8.55c0,3.8-1.14,6.77-3.43,8.91
		c-2.29,2.14-5.77,3.21-10.47,3.21h-6.37v13.97H58.04V2.59z M69.72,18.64h2.85c2.24,0,3.82-0.39,4.73-1.17
		c0.91-0.78,1.36-1.78,1.36-2.99c0-1.18-0.39-2.18-1.18-3.01c-0.79-0.82-2.27-1.23-4.44-1.23h-3.31V18.64z"/>
	<path class="st0" d="M95.13,2.59h11.64v14.23l12.19-14.23h15.48L120.68,16.8l14.36,23.44h-14.33l-7.94-15.49l-6.01,6.3v9.19H95.13
		V2.59z"/>
</g>
<g transform="translate(0,1)">
	<g>
		<path class="st0" d="M0.91,42.83h3.94c0.78,0,1.41,0.11,1.88,0.32s0.87,0.51,1.19,0.91s0.54,0.85,0.68,1.38s0.21,1.08,0.21,1.66
			c0,0.92-0.1,1.63-0.31,2.14s-0.5,0.93-0.87,1.27s-0.77,0.57-1.2,0.68c-0.58,0.16-1.11,0.23-1.58,0.23H0.91V42.83z M3.57,44.78
			v4.69h0.65c0.55,0,0.95-0.06,1.18-0.18s0.42-0.34,0.55-0.64s0.2-0.8,0.2-1.49c0-0.91-0.15-1.53-0.45-1.87s-0.79-0.5-1.48-0.5H3.57
			z"/>
		<path class="st0" d="M10.32,42.83h2.66v8.59h-2.66V42.83z"/>
		<path class="st0" d="M19.2,48.31v-1.79h4.1v3.66c-0.79,0.54-1.48,0.9-2.08,1.09s-1.32,0.29-2.15,0.29c-1.02,0-1.85-0.17-2.49-0.52
			s-1.14-0.87-1.49-1.55s-0.53-1.48-0.53-2.37c0-0.94,0.19-1.75,0.58-2.45s0.95-1.22,1.7-1.58c0.58-0.28,1.37-0.42,2.35-0.42
			c0.95,0,1.66,0.09,2.13,0.26s0.86,0.44,1.17,0.8s0.54,0.82,0.7,1.37l-2.56,0.46c-0.11-0.32-0.28-0.57-0.54-0.74
			s-0.57-0.26-0.96-0.26c-0.58,0-1.05,0.2-1.39,0.61s-0.52,1.04-0.52,1.92c0,0.93,0.17,1.59,0.52,1.99s0.84,0.6,1.46,0.6
			c0.3,0,0.58-0.04,0.85-0.13s0.58-0.23,0.93-0.44v-0.81H19.2z"/>
		<path class="st0" d="M24.98,42.83h2.66v8.59h-2.66V42.83z"/>
		<path class="st0" d="M28.95,42.83h8.07v2.12h-2.71v6.47h-2.65v-6.47h-2.71V42.83z"/>
		<path class="st0" d="M42.68,50h-3.01l-0.42,1.42h-2.71l3.23-8.59h2.9l3.23,8.59h-2.78L42.68,50z M42.13,48.15l-0.95-3.09
			l-0.94,3.09H42.13z"/>
		<path class="st0" d="M46.73,42.83h2.65v6.47h4.14v2.12h-6.8V42.83z"/>
		<path class="st0" d="M58.28,48.58l2.53-0.16c0.05,0.41,0.17,0.72,0.33,0.94c0.27,0.35,0.66,0.52,1.17,0.52
			c0.38,0,0.67-0.09,0.88-0.27s0.31-0.38,0.31-0.62c0-0.22-0.1-0.42-0.29-0.6s-0.65-0.34-1.36-0.5c-1.16-0.26-1.99-0.61-2.49-1.04
			c-0.5-0.43-0.75-0.99-0.75-1.66c0-0.44,0.13-0.86,0.38-1.25s0.64-0.7,1.15-0.93s1.22-0.34,2.11-0.34c1.1,0,1.93,0.2,2.51,0.61
			s0.92,1.06,1.03,1.95l-2.5,0.15c-0.07-0.39-0.21-0.67-0.42-0.84s-0.51-0.26-0.88-0.26c-0.31,0-0.54,0.07-0.7,0.2
			s-0.23,0.29-0.23,0.48c0,0.14,0.06,0.26,0.19,0.37c0.12,0.11,0.42,0.22,0.89,0.32c1.16,0.25,1.99,0.5,2.49,0.76
			s0.87,0.57,1.1,0.95s0.34,0.8,0.34,1.27c0,0.55-0.15,1.06-0.46,1.52s-0.73,0.82-1.28,1.06s-1.24,0.36-2.07,0.36
			c-1.46,0-2.47-0.28-3.04-0.84S58.35,49.45,58.28,48.58z"/>
		<path class="st0" d="M67.07,47.13c0-1.4,0.39-2.49,1.17-3.28s1.87-1.17,3.26-1.17c1.43,0,2.53,0.38,3.3,1.15s1.16,1.84,1.16,3.23
			c0,1-0.17,1.83-0.51,2.47s-0.83,1.14-1.46,1.5s-1.43,0.54-2.39,0.54c-0.97,0-1.77-0.15-2.41-0.46s-1.15-0.8-1.54-1.46
			S67.07,48.14,67.07,47.13z M69.73,47.14c0,0.87,0.16,1.49,0.48,1.87s0.76,0.57,1.32,0.57c0.57,0,1.01-0.19,1.32-0.56
			s0.47-1.04,0.47-2c0-0.81-0.16-1.4-0.49-1.77s-0.77-0.56-1.33-0.56c-0.54,0-0.96,0.19-1.29,0.57S69.73,46.27,69.73,47.14z"/>
		<path class="st0" d="M77.4,42.83h2.65v6.47h4.14v2.12h-6.8V42.83z"/>
		<path class="st0" d="M90.69,42.83h2.65v5.12c0,0.51-0.08,0.99-0.24,1.44s-0.41,0.85-0.74,1.18c-0.34,0.34-0.69,0.57-1.06,0.71
			c-0.52,0.19-1.13,0.29-1.86,0.29c-0.42,0-0.87-0.03-1.37-0.09s-0.91-0.17-1.24-0.35c-0.33-0.17-0.64-0.42-0.91-0.74
			c-0.28-0.32-0.46-0.65-0.57-0.99c-0.16-0.55-0.25-1.03-0.25-1.45v-5.12h2.65v5.24c0,0.47,0.13,0.83,0.39,1.1
			c0.26,0.26,0.62,0.4,1.08,0.4c0.46,0,0.82-0.13,1.08-0.39c0.26-0.26,0.39-0.63,0.39-1.1V42.83z"/>
		<path class="st0" d="M94.49,42.83h8.07v2.12h-2.71v6.47H97.2v-6.47h-2.71V42.83z"/>
		<path class="st0" d="M103.86,42.83h2.66v8.59h-2.66V42.83z"/>
		<path class="st0" d="M108.09,47.13c0-1.4,0.39-2.49,1.17-3.28s1.87-1.17,3.26-1.17c1.43,0,2.53,0.38,3.3,1.15s1.16,1.84,1.16,3.23
			c0,1-0.17,1.83-0.51,2.47s-0.83,1.14-1.46,1.5s-1.43,0.54-2.39,0.54c-0.97,0-1.77-0.15-2.41-0.46s-1.15-0.8-1.54-1.46
			S108.09,48.14,108.09,47.13z M110.75,47.14c0,0.87,0.16,1.49,0.48,1.87s0.76,0.57,1.32,0.57c0.57,0,1.01-0.19,1.32-0.56
			s0.47-1.04,0.47-2c0-0.81-0.16-1.4-0.49-1.77s-0.77-0.56-1.33-0.56c-0.54,0-0.96,0.19-1.29,0.57S110.75,46.27,110.75,47.14z"/>
		<path class="st0" d="M118.44,42.83h2.48l3.23,4.75v-4.75h2.5v8.59h-2.5l-3.22-4.72v4.72h-2.5V42.83z"/>
		<path class="st0" d="M127.96,48.58l2.53-0.16c0.05,0.41,0.17,0.72,0.33,0.94c0.27,0.35,0.66,0.52,1.17,0.52
			c0.38,0,0.67-0.09,0.88-0.27s0.31-0.38,0.31-0.62c0-0.22-0.1-0.42-0.29-0.6s-0.65-0.34-1.36-0.5c-1.16-0.26-1.99-0.61-2.49-1.04
			c-0.5-0.43-0.75-0.99-0.75-1.66c0-0.44,0.13-0.86,0.38-1.25s0.64-0.7,1.15-0.93s1.22-0.34,2.11-0.34c1.1,0,1.93,0.2,2.51,0.61
			s0.92,1.06,1.03,1.95l-2.5,0.15c-0.07-0.39-0.21-0.67-0.42-0.84s-0.51-0.26-0.88-0.26c-0.31,0-0.54,0.07-0.7,0.2
			s-0.23,0.29-0.23,0.48c0,0.14,0.06,0.26,0.19,0.37c0.12,0.11,0.42,0.22,0.89,0.32c1.16,0.25,1.99,0.5,2.49,0.76
			s0.87,0.57,1.1,0.95s0.34,0.8,0.34,1.27c0,0.55-0.15,1.06-0.46,1.52s-0.73,0.82-1.28,1.06s-1.24,0.36-2.07,0.36
			c-1.46,0-2.47-0.28-3.04-0.84S128.03,49.45,127.96,48.58z"/>
	</g>
</g>
</svg>
