<?xml version="1.0" encoding="utf-8"?>
<!-- Generator: Adobe Illustrator 27.3.1, SVG Export Plug-In . SVG Version: 6.00 Build 0)  -->
<svg version="1.1" id="logo-white" xmlns="http://www.w3.org/2000/svg" xmlns:xlink="http://www.w3.org/1999/xlink" x="0px" y="0px"
	 viewBox="0 0 138.1 64.4" style="enable-background:new 0 0 138.1 64.4;" xml:space="preserve">
<style type="text/css">
	.logo-white{fill:#ffffff;}
</style>
<g transform="translate(0,-3)">
	<path class="logo-white" d="M0.6,2.6h11.1l4,21.1l5.8-21.1h11l5.8,21l4-21h11L45,40.2H33.6L27,16.5l-6.6,23.7H9L0.6,2.6z"/>
	<path class="logo-white" d="M58,2.6h19.3c4.2,0,7.4,1,9.5,3c2.1,2,3.2,4.9,3.2,8.6c0,3.8-1.1,6.8-3.4,8.9s-5.8,3.2-10.5,3.2h-6.4v14H58
		V2.6z M69.7,18.6h2.8c2.2,0,3.8-0.4,4.7-1.2s1.4-1.8,1.4-3c0-1.2-0.4-2.2-1.2-3c-0.8-0.8-2.3-1.2-4.4-1.2h-3.3L69.7,18.6L69.7,18.6
		z"/>
	<path class="logo-white" d="M95.1,2.6h11.6v14.2L119,2.6h15.5l-13.8,14.2L135,40.2h-14.3l-7.9-15.5l-6,6.3v9.2H95.1V2.6z"/>
</g>
<g transform="translate(0,1)">
	<g>
		<path class="logo-white" d="M0.9,42.8h3.9c0.8,0,1.4,0.1,1.9,0.3s0.9,0.5,1.2,0.9c0.3,0.4,0.5,0.8,0.7,1.4s0.2,1.1,0.2,1.7
			c0,0.9-0.1,1.6-0.3,2.1S8,50.2,7.6,50.5s-0.8,0.6-1.2,0.7c-0.6,0.2-1.1,0.2-1.6,0.2H0.9V42.8z M3.6,44.8v4.7h0.6
			c0.6,0,0.9-0.1,1.2-0.2s0.4-0.3,0.6-0.6s0.2-0.8,0.2-1.5c0-0.9-0.2-1.5-0.4-1.9s-0.8-0.5-1.5-0.5L3.6,44.8L3.6,44.8z"/>
		<path class="logo-white" d="M10.3,42.8H13v8.6h-2.7V42.8z"/>
		<path class="logo-white" d="M19.2,48.3v-1.8h4.1v3.7c-0.8,0.5-1.5,0.9-2.1,1.1s-1.3,0.3-2.1,0.3c-1,0-1.9-0.2-2.5-0.5s-1.1-0.9-1.5-1.5
			s-0.5-1.5-0.5-2.4c0-0.9,0.2-1.8,0.6-2.5s0.9-1.2,1.7-1.6c0.6-0.3,1.4-0.4,2.4-0.4c1,0,1.7,0.1,2.1,0.3s0.9,0.4,1.2,0.8
			s0.5,0.8,0.7,1.4l-2.6,0.5c-0.1-0.3-0.3-0.6-0.5-0.7s-0.6-0.3-1-0.3c-0.6,0-1,0.2-1.4,0.6s-0.5,1-0.5,1.9c0,0.9,0.2,1.6,0.5,2
			s0.8,0.6,1.5,0.6c0.3,0,0.6,0,0.9-0.1s0.6-0.2,0.9-0.4v-0.8L19.2,48.3L19.2,48.3z"/>
		<path class="logo-white" d="M25,42.8h2.7v8.6H25V42.8z"/>
		<path class="logo-white" d="M29,42.8H37V45h-2.7v6.5h-2.6V45H29V42.8z"/>
		<path class="logo-white" d="M42.7,50h-3l-0.4,1.4h-2.7l3.2-8.6h2.9l3.2,8.6h-2.8L42.7,50z M42.1,48.2l-1-3.1l-0.9,3.1H42.1z"/>
		<path class="logo-white" d="M46.7,42.8h2.7v6.5h4.1v2.1h-6.8L46.7,42.8L46.7,42.8z"/>
		<path class="logo-white" d="M58.3,48.6l2.5-0.2c0,0.4,0.2,0.7,0.3,0.9c0.3,0.3,0.7,0.5,1.2,0.5c0.4,0,0.7-0.1,0.9-0.3s0.3-0.4,0.3-0.6
			c0-0.2-0.1-0.4-0.3-0.6s-0.7-0.3-1.4-0.5c-1.2-0.3-2-0.6-2.5-1s-0.8-1-0.8-1.7c0-0.4,0.1-0.9,0.4-1.2s0.6-0.7,1.2-0.9
			s1.2-0.3,2.1-0.3c1.1,0,1.9,0.2,2.5,0.6s0.9,1.1,1,2l-2.5,0.2c-0.1-0.4-0.2-0.7-0.4-0.8s-0.5-0.3-0.9-0.3c-0.3,0-0.5,0.1-0.7,0.2
			s-0.2,0.3-0.2,0.5c0,0.1,0.1,0.3,0.2,0.4c0.1,0.1,0.4,0.2,0.9,0.3c1.2,0.2,2,0.5,2.5,0.8s0.9,0.6,1.1,1s0.3,0.8,0.3,1.3
			c0,0.5-0.2,1.1-0.5,1.5s-0.7,0.8-1.3,1.1s-1.2,0.4-2.1,0.4c-1.5,0-2.5-0.3-3-0.8S58.3,49.5,58.3,48.6z"/>
		<path class="logo-white" d="M67.1,47.1c0-1.4,0.4-2.5,1.2-3.3s1.9-1.2,3.3-1.2c1.4,0,2.5,0.4,3.3,1.2s1.2,1.8,1.2,3.2
			c0,1-0.2,1.8-0.5,2.5S74.6,50.7,74,51s-1.4,0.5-2.4,0.5c-1,0-1.8-0.2-2.4-0.5s-1.2-0.8-1.5-1.5S67.1,48.1,67.1,47.1z M69.7,47.1
			c0,0.9,0.2,1.5,0.5,1.9s0.8,0.6,1.3,0.6c0.6,0,1-0.2,1.3-0.6s0.5-1,0.5-2c0-0.8-0.2-1.4-0.5-1.8s-0.8-0.6-1.3-0.6
			c-0.5,0-1,0.2-1.3,0.6S69.7,46.3,69.7,47.1z"/>
		<path class="logo-white" d="M77.4,42.8h2.7v6.5h4.1v2.1h-6.8L77.4,42.8L77.4,42.8z"/>
		<path class="logo-white" d="M90.7,42.8h2.7V48c0,0.5-0.1,1-0.2,1.4s-0.4,0.8-0.7,1.2c-0.3,0.3-0.7,0.6-1.1,0.7c-0.5,0.2-1.1,0.3-1.9,0.3
			c-0.4,0-0.9,0-1.4-0.1s-0.9-0.2-1.2-0.3c-0.3-0.2-0.6-0.4-0.9-0.7c-0.3-0.3-0.5-0.7-0.6-1c-0.2-0.5-0.2-1-0.2-1.5v-5.1h2.7v5.2
			c0,0.5,0.1,0.8,0.4,1.1c0.3,0.3,0.6,0.4,1.1,0.4s0.8-0.1,1.1-0.4s0.4-0.6,0.4-1.1C90.7,48.1,90.7,42.8,90.7,42.8z"/>
		<path class="logo-white" d="M94.5,42.8h8.1V45h-2.7v6.5h-2.7V45h-2.7V42.8z"/>
		<path class="logo-white" d="M103.9,42.8h2.7v8.6h-2.7V42.8z"/>
		<path class="logo-white" d="M108.1,47.1c0-1.4,0.4-2.5,1.2-3.3s1.9-1.2,3.3-1.2c1.4,0,2.5,0.4,3.3,1.2s1.2,1.8,1.2,3.2
			c0,1-0.2,1.8-0.5,2.5s-0.8,1.1-1.5,1.5s-1.4,0.5-2.4,0.5c-1,0-1.8-0.2-2.4-0.5s-1.2-0.8-1.5-1.5S108.1,48.1,108.1,47.1z
			 M110.8,47.1c0,0.9,0.2,1.5,0.5,1.9s0.8,0.6,1.3,0.6c0.6,0,1-0.2,1.3-0.6s0.5-1,0.5-2c0-0.8-0.2-1.4-0.5-1.8s-0.8-0.6-1.3-0.6
			c-0.5,0-1,0.2-1.3,0.6S110.8,46.3,110.8,47.1z"/>
		<path class="logo-white" d="M118.4,42.8h2.5l3.2,4.8v-4.8h2.5v8.6h-2.5l-3.2-4.7v4.7h-2.5L118.4,42.8L118.4,42.8z"/>
		<path class="logo-white" d="M128,48.6l2.5-0.2c0.1,0.4,0.2,0.7,0.3,0.9c0.3,0.3,0.7,0.5,1.2,0.5c0.4,0,0.7-0.1,0.9-0.3s0.3-0.4,0.3-0.6
			c0-0.2-0.1-0.4-0.3-0.6s-0.6-0.3-1.4-0.5c-1.2-0.3-2-0.6-2.5-1s-0.8-1-0.8-1.7c0-0.4,0.1-0.9,0.4-1.2s0.6-0.7,1.1-0.9
			s1.2-0.3,2.1-0.3c1.1,0,1.9,0.2,2.5,0.6s0.9,1.1,1,2l-2.5,0.2c-0.1-0.4-0.2-0.7-0.4-0.8s-0.5-0.3-0.9-0.3c-0.3,0-0.5,0.1-0.7,0.2
			s-0.2,0.3-0.2,0.5c0,0.1,0.1,0.3,0.2,0.4c0.1,0.1,0.4,0.2,0.9,0.3c1.2,0.2,2,0.5,2.5,0.8s0.9,0.6,1.1,1s0.3,0.8,0.3,1.3
			c0,0.5-0.1,1.1-0.5,1.5s-0.7,0.8-1.3,1.1s-1.2,0.4-2.1,0.4c-1.5,0-2.5-0.3-3-0.8S128,49.5,128,48.6z"/>
	</g>
</g>
</svg>
